<svg width="70" height="70" viewBox="0 0 70 70" fill="none" xmlns="http://www.w3.org/2000/svg">
<path fill-rule="evenodd" clip-rule="evenodd" d="M35 0C15.67 0 0 15.67 0 35C0 54.33 15.67 70 35 70C54.33 70 70 54.33 70 35C70 15.67 54.33 0 35 0ZM35 19.0909C36.7573 19.0909 38.1818 20.5155 38.1818 22.2727V31.8182H47.7273C49.4845 31.8182 50.9091 33.2427 50.9091 35C50.9091 36.7573 49.4845 38.1818 47.7273 38.1818H38.1818V47.7273C38.1818 49.4845 36.7573 50.9091 35 50.9091C33.2427 50.9091 31.8182 49.4845 31.8182 47.7273V38.1818H22.2727C20.5155 38.1818 19.0909 36.7573 19.0909 35C19.0909 33.2427 20.5155 31.8182 22.2727 31.8182H31.8182V22.2727C31.8182 20.5155 33.2427 19.0909 35 19.0909Z" fill="black"/>
</svg> 
