<svg width="92" height="50" viewBox="0 0 92 50" fill="none" xmlns="http://www.w3.org/2000/svg">
<rect width="92" height="50" rx="5" fill="black"/>
<path fill-rule="evenodd" clip-rule="evenodd" d="M51.3394 14.3143C53.0919 12.5619 55.9332 12.5619 57.6856 14.3143C59.4381 16.0668 59.4381 18.9081 57.6856 20.6606L44.421 33.9252C44.1474 34.1988 43.9404 34.406 43.7066 34.5874C43.5 34.7478 43.2802 34.8906 43.0497 35.0143C42.789 35.1542 42.5157 35.2593 42.1545 35.3981L42.0078 35.4545C41.9711 35.4687 41.9347 35.4827 41.8988 35.4965L35.5929 37.9218C35.1606 38.0881 34.6709 37.9842 34.3433 37.6567C34.1194 37.4327 34 37.133 34 36.8277C34 36.6863 34.0255 36.5438 34.0782 36.407L36.6018 29.8455C36.7406 29.4842 36.8457 29.211 36.9856 28.9502C37.1094 28.7197 37.2522 28.5 37.4126 28.2933C37.594 28.0595 37.801 27.8525 38.0748 27.5789L51.3394 14.3143ZM38.5491 31.3131L37.2129 34.787L40.6868 33.4509L38.5491 31.3131Z" fill="white"/>
<path d="M47.4796 35.0698H56.8567C57.5041 35.0698 58.0289 35.5945 58.0289 36.2419C58.0289 36.8893 57.5041 37.414 56.8567 37.414H47.4796C46.8322 37.414 46.3075 36.8893 46.3075 36.2419C46.3075 35.5945 46.8322 35.0698 47.4796 35.0698Z" fill="white"/>
</svg>
