<svg width="92" height="50" viewBox="0 0 92 50" fill="none" xmlns="http://www.w3.org/2000/svg">
<rect width="92" height="50" rx="5" fill="black"/>
<path d="M41.5 14.25C41.5 13.5596 42.0596 13 42.75 13H50.25C50.9403 13 51.5 13.5596 51.5 14.25C51.5 14.9404 50.9403 15.5 50.25 15.5H42.75C42.0596 15.5 41.5 14.9404 41.5 14.25Z" fill="white"/>
<path fill-rule="evenodd" clip-rule="evenodd" d="M34 18C34 17.3096 34.5596 16.75 35.25 16.75H57.75C58.4403 16.75 59 17.3096 59 18C59 18.6903 58.4403 19.25 57.75 19.25H56.4194L55.6173 31.2818C55.5544 32.2261 55.5023 33.0076 55.4089 33.6436C55.3117 34.3059 55.1574 34.911 54.8361 35.475C54.336 36.353 53.5815 37.0588 52.6722 37.4995C52.0881 37.7826 51.474 37.8962 50.8068 37.9492C50.1659 38 49.3827 38 48.4363 38H44.5637C43.6173 38 42.8341 38 42.1933 37.9492C41.526 37.8962 40.9119 37.7826 40.3278 37.4995C39.4185 37.0588 38.6641 36.353 38.1639 35.475C37.8426 34.911 37.6884 34.3059 37.5911 33.6436C37.4977 33.0075 37.4456 32.2261 37.3827 31.2818L36.5806 19.25H35.25C34.5596 19.25 34 18.6903 34 18Z" fill="white"/>
</svg>

